<?xml version="1.0" standalone="no"?>
<!DOCTYPE svg PUBLIC "-//W3C//DTD SVG 20010904//EN"
 "http://www.w3.org/TR/2001/REC-SVG-20010904/DTD/svg10.dtd">
<svg version="1.0" xmlns="http://www.w3.org/2000/svg"
 width="2032.000000pt" height="2032.000000pt" viewBox="0 0 2032.000000 2032.000000"
 preserveAspectRatio="xMidYMid meet">
<metadata>
Created by potrace 1.14, written by Peter Selinger 2001-2017
</metadata>
<g transform="translate(0.000000,2032.000000) scale(0.100000,-0.100000)"
fill="#000000" stroke="none">
<path d="M9800 18654 c-479 -32 -748 -72 -1125 -166 -606 -151 -1211 -417
-1739 -766 -162 -106 -406 -290 -556 -417 -160 -136 -524 -504 -654 -660 -780
-937 -1221 -2019 -1316 -3230 -16 -207 -14 -678 5 -890 51 -582 174 -1102 385
-1631 190 -476 465 -956 774 -1353 220 -283 581 -660 836 -872 623 -519 1310
-887 2060 -1104 1353 -391 2791 -271 4043 338 114 55 207 105 207 110 0 6
-136 277 -302 603 l-302 592 -137 -68 c-431 -216 -881 -352 -1394 -421 -150
-21 -212 -23 -525 -24 -381 0 -497 9 -780 61 -1666 306 -2997 1554 -3410 3197
-88 354 -124 652 -124 1047 0 499 62 893 214 1352 517 1568 1892 2708 3525
2922 370 48 772 49 1135 0 1237 -164 2335 -850 3024 -1889 137 -207 190 -300
300 -526 138 -285 236 -562 310 -879 27 -117 37 -144 50 -142 19 3 1259 423
1265 428 13 11 -125 481 -201 684 -378 1014 -1002 1863 -1863 2535 -138 108
-470 330 -635 425 -174 100 -516 266 -700 340 -515 207 -1076 340 -1645 390
-124 11 -628 21 -725 14z"/>
<path d="M9250 2755 l0 -1885 805 0 805 0 0 1885 0 1885 -805 0 -805 0 0
-1885z"/>
</g>
</svg>
