<svg  viewBox="0 0 57 55" fill="none" xmlns="http://www.w3.org/2000/svg">
<path d="M20.4325 15.6927L38.7387 10.7956C45.4098 9.01109 50.2422 11.9223 52.1002 18.8451L57.194 37.824C59.052 44.7467 56.3251 49.6801 49.654 51.4647L31.3478 56.3617C24.6767 58.1463 19.8617 55.2304 18.0037 48.3076L12.9099 29.3287C11.0518 22.4059 13.7614 17.4772 20.4325 15.6927Z" fill="url(#paint0_linear_18441_154)"/>
<g filter="url(#filter0_f_18441_154)">
<path d="M25.5805 22.7008L38.0135 19.3749C42.5443 18.1629 45.7698 19.9297 46.9321 24.26L50.1184 36.1317C51.2806 40.4621 49.372 43.6023 44.8413 44.8143L32.4082 48.1402C27.8774 49.3522 24.6637 47.5823 23.5015 43.2519L20.3152 31.3802C19.1529 27.0499 21.0497 23.9128 25.5805 22.7008Z" fill="#0062FF" fill-opacity="0.5"/>
</g>
<g filter="url(#filter1_b_18441_154)">
<mask id="path-3-outside-1_18441_154" maskUnits="userSpaceOnUse" x="22.8867" y="18.9203" width="46" height="46" fill="black">
<rect fill="white" x="22.8867" y="18.9203" width="46" height="46"/>
<path d="M54.8261 19.9203H36.1201C28.8059 19.9203 23.8867 25.0468 23.8867 32.6719V50.27C23.8867 57.8735 28.8059 63 36.1201 63H54.8261C62.1402 63 67.0378 57.8735 67.0378 50.27V32.6719C67.0378 25.0468 62.1402 19.9203 54.8261 19.9203Z"/>
</mask>
<path d="M54.8261 19.9203H36.1201C28.8059 19.9203 23.8867 25.0468 23.8867 32.6719V50.27C23.8867 57.8735 28.8059 63 36.1201 63H54.8261C62.1402 63 67.0378 57.8735 67.0378 50.27V32.6719C67.0378 25.0468 62.1402 19.9203 54.8261 19.9203Z" fill="#3EA0FE" fill-opacity="0.35"/>
<path d="M54.8261 20.9203C55.3784 20.9203 55.8261 20.4726 55.8261 19.9203C55.8261 19.368 55.3784 18.9203 54.8261 18.9203V20.9203ZM54.8261 18.9203C54.2738 18.9203 53.8261 19.368 53.8261 19.9203C53.8261 20.4726 54.2738 20.9203 54.8261 20.9203V18.9203ZM54.8261 18.9203H36.1201V20.9203H54.8261V18.9203ZM36.1201 18.9203C32.2207 18.9203 28.8916 20.2923 26.539 22.7444C24.1899 25.1929 22.8867 28.6421 22.8867 32.6719H24.8867C24.8867 29.0766 26.0432 26.1501 27.9822 24.129C29.9178 22.1116 32.7053 20.9203 36.1201 20.9203V18.9203ZM22.8867 32.6719V50.27H24.8867V32.6719H22.8867ZM22.8867 50.27C22.8867 54.2897 24.1903 57.7336 26.5394 60.1791C28.8919 62.6281 32.2208 64 36.1201 64V62C32.7052 62 29.9175 60.8087 27.9818 58.7936C26.0427 56.7749 24.8867 53.8538 24.8867 50.27H22.8867ZM36.1201 64H54.8261V62H36.1201V64ZM54.8261 64C58.7255 64 62.0496 62.6279 64.3968 60.1782C66.7404 57.7322 68.0378 54.2885 68.0378 50.27H66.0378C66.0378 53.855 64.8865 56.7763 62.9527 58.7945C61.0226 60.8089 58.2407 62 54.8261 62V64ZM68.0378 50.27V32.6719H66.0378V50.27H68.0378ZM68.0378 32.6719C68.0378 28.6433 66.7408 25.1942 64.3972 22.7453C62.0499 20.2925 58.7256 18.9203 54.8261 18.9203V20.9203C58.2407 20.9203 61.0223 22.1114 62.9523 24.1281C64.886 26.1487 66.0378 29.0754 66.0378 32.6719H68.0378Z" fill="url(#paint1_linear_18441_154)" mask="url(#path-3-outside-1_18441_154)"/>
</g>
<g filter="url(#filter2_bd_18441_154)">
<mask id="path-5-inside-2_18441_154" fill="white">
<path fill-rule="evenodd" clip-rule="evenodd" d="M32.5535 33.9776C32.5535 36.9584 34.9803 39.3845 37.967 39.3845C40.9514 39.3845 43.3804 36.9584 43.3804 33.9776C43.3804 30.9967 40.9514 28.5706 37.967 28.5706C34.9803 28.5706 32.5535 30.9967 32.5535 33.9776ZM62.067 53.8208C62.8425 51.9817 63.2194 49.7497 62.494 47.8927C62.2522 47.2767 61.8905 46.7031 61.383 46.1986C60.0519 44.8795 58.808 43.6475 57.3289 42.7369C55.0067 41.2905 53.2138 43.3216 52.7302 43.9711C52.3444 44.4901 52.0034 45.0535 51.6577 45.6245C51.5857 45.7435 51.5134 45.8628 51.4405 45.9821L51.4233 46.0106C50.3948 47.7114 49.2137 49.6645 47.1773 50.8032C44.2016 52.4481 41.9425 50.9326 40.3174 49.83C39.7075 49.4194 39.1149 49.031 38.5246 48.7721C37.0694 48.1449 35.7601 48.8591 33.8169 51.3232C32.7974 52.6111 31.7866 53.8878 30.7628 55.16C30.1506 55.9211 30.2966 57.0951 31.1222 57.604C32.4402 58.4142 34.0479 58.8494 35.8647 58.8494H54.1222C55.1526 58.8494 56.1852 58.7088 57.1699 58.3874C59.3875 57.6642 61.1477 56.0081 62.067 53.8208Z"/>
</mask>
<path fill-rule="evenodd" clip-rule="evenodd" d="M32.5535 33.9776C32.5535 36.9584 34.9803 39.3845 37.967 39.3845C40.9514 39.3845 43.3804 36.9584 43.3804 33.9776C43.3804 30.9967 40.9514 28.5706 37.967 28.5706C34.9803 28.5706 32.5535 30.9967 32.5535 33.9776ZM62.067 53.8208C62.8425 51.9817 63.2194 49.7497 62.494 47.8927C62.2522 47.2767 61.8905 46.7031 61.383 46.1986C60.0519 44.8795 58.808 43.6475 57.3289 42.7369C55.0067 41.2905 53.2138 43.3216 52.7302 43.9711C52.3444 44.4901 52.0034 45.0535 51.6577 45.6245C51.5857 45.7435 51.5134 45.8628 51.4405 45.9821L51.4233 46.0106C50.3948 47.7114 49.2137 49.6645 47.1773 50.8032C44.2016 52.4481 41.9425 50.9326 40.3174 49.83C39.7075 49.4194 39.1149 49.031 38.5246 48.7721C37.0694 48.1449 35.7601 48.8591 33.8169 51.3232C32.7974 52.6111 31.7866 53.8878 30.7628 55.16C30.1506 55.9211 30.2966 57.0951 31.1222 57.604C32.4402 58.4142 34.0479 58.8494 35.8647 58.8494H54.1222C55.1526 58.8494 56.1852 58.7088 57.1699 58.3874C59.3875 57.6642 61.1477 56.0081 62.067 53.8208Z" fill="url(#paint2_linear_18441_154)"/>
<path d="M62.494 47.8927L62.6803 47.8199L62.6801 47.8196L62.494 47.8927ZM62.067 53.8208L61.8827 53.7431L61.8826 53.7433L62.067 53.8208ZM61.383 46.1986L61.5239 46.0568L61.5237 46.0566L61.383 46.1986ZM57.3289 42.7369L57.2231 42.9066L57.224 42.9072L57.3289 42.7369ZM52.7302 43.9711L52.5698 43.8517L52.5697 43.8518L52.7302 43.9711ZM51.6577 45.6245L51.8288 45.7281V45.7281L51.6577 45.6245ZM51.4405 45.9821L51.2699 45.8779L51.2694 45.8786L51.4405 45.9821ZM51.4233 46.0106L51.2522 45.9071L51.2522 45.9071L51.4233 46.0106ZM47.1773 50.8032L47.2741 50.9782L47.2749 50.9777L47.1773 50.8032ZM40.3174 49.83L40.4297 49.6645L40.4291 49.6641L40.3174 49.83ZM38.5246 48.7721L38.6049 48.5889L38.6037 48.5884L38.5246 48.7721ZM33.8169 51.3232L33.9738 51.4474L33.974 51.4471L33.8169 51.3232ZM30.7628 55.16L30.607 55.0346L30.6069 55.0346L30.7628 55.16ZM31.1222 57.604L31.0173 57.7742L31.0175 57.7744L31.1222 57.604ZM57.1699 58.3874L57.1078 58.1973L57.1078 58.1973L57.1699 58.3874ZM37.967 39.1845C35.0906 39.1845 32.7535 36.8478 32.7535 33.9776H32.3535C32.3535 37.0691 34.87 39.5845 37.967 39.5845V39.1845ZM43.1804 33.9776C43.1804 36.8478 40.8412 39.1845 37.967 39.1845V39.5845C41.0617 39.5845 43.5804 37.0691 43.5804 33.9776H43.1804ZM37.967 28.7706C40.8412 28.7706 43.1804 31.1074 43.1804 33.9776H43.5804C43.5804 30.886 41.0617 28.3706 37.967 28.3706V28.7706ZM32.7535 33.9776C32.7535 31.1073 35.0906 28.7706 37.967 28.7706V28.3706C34.87 28.3706 32.3535 30.886 32.3535 33.9776H32.7535ZM62.3077 47.9655C63.0062 49.7536 62.6485 51.9271 61.8827 53.7431L62.2513 53.8985C63.0366 52.0362 63.4326 49.7458 62.6803 47.8199L62.3077 47.9655ZM61.242 46.3405C61.7289 46.8244 62.0756 47.3742 62.3078 47.9658L62.6801 47.8196C62.4287 47.1792 62.0522 46.5818 61.5239 46.0568L61.242 46.3405ZM57.224 42.9072C58.6802 43.8036 59.908 45.0185 61.2422 46.3407L61.5237 46.0566C60.1959 44.7406 58.9359 43.4913 57.4337 42.5665L57.224 42.9072ZM52.8906 44.0906C53.1249 43.7759 53.672 43.134 54.431 42.7462C55.1778 42.3646 56.1308 42.2263 57.2231 42.9066L57.4346 42.5671C56.2047 41.8011 55.1002 41.9551 54.2491 42.39C53.4102 42.8185 52.8191 43.5169 52.5698 43.8517L52.8906 44.0906ZM51.8288 45.7281C52.1754 45.1556 52.5116 44.6005 52.8907 44.0904L52.5697 43.8518C52.1772 44.3798 51.8314 44.9514 51.4866 45.5209L51.8288 45.7281ZM51.6112 46.0864C51.6844 45.9667 51.7568 45.847 51.8288 45.7281L51.4866 45.5209C51.4145 45.64 51.3425 45.7589 51.2699 45.8779L51.6112 46.0864ZM51.5945 46.1141L51.6117 46.0856L51.2694 45.8786L51.2522 45.9071L51.5945 46.1141ZM47.2749 50.9777C49.3645 49.8094 50.57 47.8082 51.5945 46.1141L51.2522 45.9071C50.2196 47.6146 49.0629 49.5197 47.0797 50.6286L47.2749 50.9777ZM40.2051 49.9955C41.0146 50.5448 42.0116 51.2188 43.1882 51.5399C44.3756 51.8639 45.7382 51.8272 47.2741 50.9782L47.0806 50.6281C45.6407 51.4241 44.386 51.4521 43.2935 51.154C42.1904 50.8529 41.2453 50.2179 40.4297 49.6645L40.2051 49.9955ZM38.4442 48.9553C39.0157 49.2059 39.5941 49.5842 40.2057 49.9959L40.4291 49.6641C39.8208 49.2546 39.2141 48.8561 38.6049 48.5889L38.4442 48.9553ZM33.974 51.4471C34.9419 50.2197 35.7343 49.4522 36.4491 49.0642C37.1481 48.6849 37.775 48.6668 38.4454 48.9558L38.6037 48.5884C37.819 48.2502 37.0635 48.2757 36.2583 48.7127C35.469 49.141 34.6352 49.9627 33.6599 51.1994L33.974 51.4471ZM30.9186 55.2854C31.943 54.0124 32.9543 52.7351 33.9738 51.4474L33.6601 51.1991C32.6405 52.487 31.6302 53.7631 30.607 55.0346L30.9186 55.2854ZM31.2271 57.4337C30.5147 56.9946 30.3738 55.9628 30.9186 55.2853L30.6069 55.0346C29.9275 55.8794 30.0784 57.1956 31.0173 57.7742L31.2271 57.4337ZM35.8647 58.6494C34.08 58.6494 32.5095 58.2221 31.2269 57.4336L31.0175 57.7744C32.3708 58.6063 34.0157 59.0494 35.8647 59.0494V58.6494ZM54.1222 58.6494H35.8647V59.0494H54.1222V58.6494ZM57.1078 58.1973C56.1459 58.5112 55.1346 58.6494 54.1222 58.6494V59.0494C55.1706 59.0494 56.2245 58.9064 57.2319 58.5775L57.1078 58.1973ZM61.8826 53.7433C60.9849 55.8792 59.2682 57.4928 57.1078 58.1973L57.2319 58.5776C59.5068 57.8357 61.3104 56.1371 62.2514 53.8983L61.8826 53.7433Z" fill="url(#paint3_linear_18441_154)" fill-opacity="0.5" mask="url(#path-5-inside-2_18441_154)"/>
</g>
<defs>
<filter id="filter0_f_18441_154" x="0.980469" y="0.00146484" width="68.4707" height="67.5118" filterUnits="userSpaceOnUse" color-interpolation-filters="sRGB">
<feFlood flood-opacity="0" result="BackgroundImageFix"/>
<feBlend mode="normal" in="SourceGraphic" in2="BackgroundImageFix" result="shape"/>
<feGaussianBlur stdDeviation="9.5" result="effect1_foregroundBlur_18441_154"/>
</filter>
<filter id="filter1_b_18441_154" x="-1.11328" y="-5.07968" width="93.1504" height="93.0797" filterUnits="userSpaceOnUse" color-interpolation-filters="sRGB">
<feFlood flood-opacity="0" result="BackgroundImageFix"/>
<feGaussianBlur in="BackgroundImageFix" stdDeviation="12"/>
<feComposite in2="SourceAlpha" operator="in" result="effect1_backgroundBlur_18441_154"/>
<feBlend mode="normal" in="SourceGraphic" in2="effect1_backgroundBlur_18441_154" result="shape"/>
</filter>
<filter id="filter2_bd_18441_154" x="15.3867" y="13.5706" width="62.4961" height="60.2788" filterUnits="userSpaceOnUse" color-interpolation-filters="sRGB">
<feFlood flood-opacity="0" result="BackgroundImageFix"/>
<feGaussianBlur in="BackgroundImageFix" stdDeviation="7.5"/>
<feComposite in2="SourceAlpha" operator="in" result="effect1_backgroundBlur_18441_154"/>
<feColorMatrix in="SourceAlpha" type="matrix" values="0 0 0 0 0 0 0 0 0 0 0 0 0 0 0 0 0 0 127 0" result="hardAlpha"/>
<feOffset dx="5" dy="5"/>
<feGaussianBlur stdDeviation="5"/>
<feColorMatrix type="matrix" values="0 0 0 0 0.15375 0 0 0 0 0.522433 0 0 0 0 0.9 0 0 0 0.5 0"/>
<feBlend mode="normal" in2="effect1_backgroundBlur_18441_154" result="effect2_dropShadow_18441_154"/>
<feBlend mode="normal" in="SourceGraphic" in2="effect2_dropShadow_18441_154" result="shape"/>
</filter>
<linearGradient id="paint0_linear_18441_154" x1="12.8022" y1="17.7338" x2="62.3914" y2="34.4412" gradientUnits="userSpaceOnUse">
<stop stop-color="#39AFFD"/>
<stop offset="1" stop-color="#3A76FF"/>
</linearGradient>
<linearGradient id="paint1_linear_18441_154" x1="30.7557" y1="24.9392" x2="58.2263" y2="59.0186" gradientUnits="userSpaceOnUse">
<stop stop-color="white" stop-opacity="0.25"/>
<stop offset="1" stop-color="white" stop-opacity="0.06"/>
</linearGradient>
<linearGradient id="paint2_linear_18441_154" x1="60.5782" y1="34.0384" x2="24.3873" y2="35.3047" gradientUnits="userSpaceOnUse">
<stop stop-color="white"/>
<stop offset="1" stop-color="white" stop-opacity="0.2"/>
</linearGradient>
<linearGradient id="paint3_linear_18441_154" x1="33.8872" y1="38.7277" x2="61.4802" y2="38.8912" gradientUnits="userSpaceOnUse">
<stop stop-color="white"/>
<stop offset="1" stop-color="white" stop-opacity="0"/>
</linearGradient>
</defs>
</svg>
