<svg width="19" height="20" viewBox="0 0 19 20" fill="none" xmlns="http://www.w3.org/2000/svg">
<path fill-rule="evenodd" clip-rule="evenodd" d="M2.9381 1.12233C3.59238 0.976651 4.36693 0.930222 5.2539 0.930222H13.1339C14.0208 0.930222 14.7954 0.976651 15.4497 1.12233C16.1142 1.27029 16.7089 1.53242 17.1775 2.00184C17.646 2.47127 17.9077 3.06702 18.0554 3.7328C18.2008 4.38828 18.2471 5.16423 18.2471 6.05282V10.3192C18.2471 11.2078 18.2008 11.9838 18.0554 12.6393C17.9077 13.305 17.646 13.9008 17.1775 14.3702C16.7089 14.8396 16.1142 15.1018 15.4497 15.2497C14.7954 15.3954 14.0208 15.4418 13.1339 15.4418H11.0045L12.6341 17.6186C12.9341 18.0193 12.853 18.5878 12.4531 18.8884C12.0531 19.1889 11.4856 19.1077 11.1856 18.707L9.19388 16.0465L7.20216 18.707C6.90216 19.1077 6.33471 19.1889 5.93471 18.8884C5.53471 18.5878 5.45364 18.0193 5.75364 17.6186L7.38323 15.4418H5.2539C4.36693 15.4418 3.59238 15.3954 2.9381 15.2497C2.27353 15.1018 1.67887 14.8396 1.2103 14.3702C0.741727 13.9008 0.480073 13.305 0.332379 12.6393C0.18697 11.9838 0.140625 11.2078 0.140625 10.3192V6.05282C0.140625 5.16423 0.18697 4.38828 0.332379 3.7328C0.480073 3.06702 0.741727 2.47127 1.2103 2.00184C1.67887 1.53242 2.27353 1.27029 2.9381 1.12233ZM10.0992 5.4651C10.0992 4.9642 9.69388 4.55813 9.19388 4.55813C8.69388 4.55813 8.28855 4.9642 8.28855 5.4651V10.907C8.28855 11.4079 8.69388 11.8139 9.19388 11.8139C9.69388 11.8139 10.0992 11.4079 10.0992 10.907L10.0992 5.4651ZM12.8152 5.4651C13.3152 5.4651 13.7205 5.87117 13.7205 6.37208L13.7205 10.907C13.7205 11.4079 13.3152 11.8139 12.8152 11.8139C12.3152 11.8139 11.9099 11.4079 11.9099 10.907V6.37208C11.9099 5.87117 12.3152 5.4651 12.8152 5.4651ZM6.4779 7.27906C6.4779 6.77815 6.07258 6.37208 5.57258 6.37208C5.07258 6.37208 4.66725 6.77815 4.66725 7.27906L4.66725 10.907C4.66725 11.4079 5.07258 11.8139 5.57258 11.8139C6.07257 11.8139 6.4779 11.4079 6.4779 10.907L6.4779 7.27906Z" fill="#FAFAFA"/>
</svg>
