<svg width="62" height="67" viewBox="0 0 62 67" fill="none" xmlns="http://www.w3.org/2000/svg">
<path d="M43.0459 17.487L27.6639 13.3655C22.0845 11.8704 17.9606 14.2669 16.4606 19.8647L11.3806 38.8238C9.85607 44.5133 12.2489 48.5773 17.8284 50.0723L33.2104 54.1939C38.8797 55.713 42.8922 53.3653 44.4167 47.6758L49.4968 28.7167C50.9967 23.1189 48.7153 19.0062 43.0459 17.487Z" fill="url(#paint0_linear_18441_13)"/>
<g opacity="0.5" filter="url(#filter0_f_18441_13)">
<path d="M26.0733 33.2506C22.8987 32.9128 20.4902 30.2346 20.4902 27.0421C20.4902 23.8495 22.8987 21.1713 26.0733 20.8335L30.6385 20.3479C34.6158 19.9248 38.0826 23.0423 38.0826 27.0421C38.0826 31.0418 34.6158 34.1593 30.6385 33.7362L26.0733 33.2506Z" fill="#0062FF"/>
</g>
<g filter="url(#filter1_b_18441_13)">
<path d="M55.0602 36.8338C55.0602 29.096 50.3694 24.5385 42.4313 24.5385H21.6309C13.6908 24.5385 9 29.096 9 36.8338V53.6867C9 61.4244 13.6908 66 21.6309 66H42.4395C50.3776 66 55.0684 61.4244 55.0684 53.6867C55.0684 45.9489 55.0602 37.6886 55.0602 36.8338Z" fill="#3EA0FE" fill-opacity="0.35"/>
<path d="M55.5602 36.8338C55.5602 32.8629 54.3542 29.6476 52.0712 27.4261C49.79 25.2064 46.4947 24.0385 42.4313 24.0385H21.6309C17.5665 24.0385 14.2707 25.2064 11.9892 27.4261C9.70595 29.6476 8.5 32.8629 8.5 36.8338V53.6867C8.5 57.6575 9.70591 60.8771 11.9889 63.103C14.2702 65.3273 17.566 66.5 21.6309 66.5H42.4395C46.5034 66.5 49.7988 65.3273 52.0798 63.103C54.3625 60.8771 55.5684 57.6575 55.5684 53.6867C55.5684 49.8177 55.5663 45.818 55.5643 42.6788C55.5633 41.108 55.5622 39.7528 55.5615 38.7372C55.5607 37.7229 55.5602 37.0472 55.5602 36.8338Z" stroke="url(#paint1_linear_18441_13)" stroke-linecap="round" stroke-linejoin="round"/>
</g>
<g filter="url(#filter2_b_18441_13)">
<path d="M38.4442 46.303C39.0659 49.1199 41.5453 51.1019 44.3759 51.0503H57.0717C58.2495 51.0503 59.2048 50.0787 59.2048 48.8777V41.3804C59.2023 40.1819 58.2495 39.2077 57.0717 39.2051H44.1484C40.9286 39.2154 38.328 41.8778 38.333 45.1587C38.333 45.5427 38.3709 45.9267 38.4442 46.303Z" fill="#3EA0FE" fill-opacity="0.35"/>
<path d="M37.9534 46.3986L37.9533 46.3986L37.956 46.4107C38.6273 49.4526 41.3076 51.6041 44.3803 51.5503H57.0717C58.534 51.5503 59.7048 50.3463 59.7048 48.8777L59.7048 41.3804L59.7048 41.3793C59.7017 39.9152 58.5354 38.7083 57.0728 38.7051H57.0717L44.1484 38.7051L44.1468 38.7051C40.6425 38.7164 37.8278 41.6114 37.833 45.159C37.833 45.5757 37.8742 45.9916 37.9534 46.3986Z" stroke="url(#paint2_linear_18441_13)" stroke-linecap="round" stroke-linejoin="round"/>
</g>
<g filter="url(#filter3_bd_18441_13)">
<circle cx="44.2562" cy="45.1282" r="2.53846" fill="url(#paint3_linear_18441_13)"/>
<circle cx="44.2562" cy="45.1282" r="2.43846" stroke="url(#paint4_linear_18441_13)" stroke-opacity="0.5" stroke-width="0.2"/>
</g>
<g filter="url(#filter4_bd_18441_13)">
<path d="M32.9247 36.9059H19.9334C18.9609 36.9019 18.1746 36.1294 18.1787 35.1811C18.1828 34.2369 18.967 33.4723 19.9334 33.4683H32.9329C33.9054 33.4643 34.6999 34.2309 34.704 35.1791C34.7081 36.1294 33.9218 36.9019 32.9493 36.9059H32.9329H32.9247Z" fill="url(#paint5_linear_18441_13)"/>
<path d="M32.9329 33.5683L32.9333 33.5683C33.8532 33.5645 34.6001 34.289 34.604 35.1796C34.6078 36.0722 33.8686 36.8021 32.949 36.8059H32.9329H32.9247H19.9337C19.014 36.8021 18.2749 36.0721 18.2787 35.1816C18.2826 34.2945 19.0199 33.5722 19.9336 33.5683L32.9329 33.5683Z" stroke="url(#paint6_linear_18441_13)" stroke-opacity="0.5" stroke-width="0.2"/>
</g>
<defs>
<filter id="filter0_f_18441_13" x="0.490234" y="0.309387" width="57.5928" height="53.4653" filterUnits="userSpaceOnUse" color-interpolation-filters="sRGB">
<feFlood flood-opacity="0" result="BackgroundImageFix"/>
<feBlend mode="normal" in="SourceGraphic" in2="BackgroundImageFix" result="shape"/>
<feGaussianBlur stdDeviation="10" result="effect1_foregroundBlur_18441_13"/>
</filter>
<filter id="filter1_b_18441_13" x="-16" y="-0.461548" width="96.0684" height="91.4615" filterUnits="userSpaceOnUse" color-interpolation-filters="sRGB">
<feFlood flood-opacity="0" result="BackgroundImageFix"/>
<feGaussianBlur in="BackgroundImageFix" stdDeviation="12"/>
<feComposite in2="SourceAlpha" operator="in" result="effect1_backgroundBlur_18441_13"/>
<feBlend mode="normal" in="SourceGraphic" in2="effect1_backgroundBlur_18441_13" result="shape"/>
</filter>
<filter id="filter2_b_18441_13" x="13.333" y="14.2051" width="70.8721" height="61.8462" filterUnits="userSpaceOnUse" color-interpolation-filters="sRGB">
<feFlood flood-opacity="0" result="BackgroundImageFix"/>
<feGaussianBlur in="BackgroundImageFix" stdDeviation="12"/>
<feComposite in2="SourceAlpha" operator="in" result="effect1_backgroundBlur_18441_13"/>
<feBlend mode="normal" in="SourceGraphic" in2="effect1_backgroundBlur_18441_13" result="shape"/>
</filter>
<filter id="filter3_bd_18441_13" x="26.7178" y="27.5897" width="35.0771" height="35.0769" filterUnits="userSpaceOnUse" color-interpolation-filters="sRGB">
<feFlood flood-opacity="0" result="BackgroundImageFix"/>
<feGaussianBlur in="BackgroundImageFix" stdDeviation="7.5"/>
<feComposite in2="SourceAlpha" operator="in" result="effect1_backgroundBlur_18441_13"/>
<feColorMatrix in="SourceAlpha" type="matrix" values="0 0 0 0 0 0 0 0 0 0 0 0 0 0 0 0 0 0 127 0" result="hardAlpha"/>
<feOffset dx="5" dy="5"/>
<feGaussianBlur stdDeviation="5"/>
<feColorMatrix type="matrix" values="0 0 0 0 0.15375 0 0 0 0 0.522433 0 0 0 0 0.9 0 0 0 0.5 0"/>
<feBlend mode="normal" in2="effect1_backgroundBlur_18441_13" result="effect2_dropShadow_18441_13"/>
<feBlend mode="normal" in="SourceGraphic" in2="effect2_dropShadow_18441_13" result="shape"/>
</filter>
<filter id="filter4_bd_18441_13" x="3.17871" y="18.4683" width="46.5254" height="33.4377" filterUnits="userSpaceOnUse" color-interpolation-filters="sRGB">
<feFlood flood-opacity="0" result="BackgroundImageFix"/>
<feGaussianBlur in="BackgroundImageFix" stdDeviation="7.5"/>
<feComposite in2="SourceAlpha" operator="in" result="effect1_backgroundBlur_18441_13"/>
<feColorMatrix in="SourceAlpha" type="matrix" values="0 0 0 0 0 0 0 0 0 0 0 0 0 0 0 0 0 0 127 0" result="hardAlpha"/>
<feOffset dx="5" dy="5"/>
<feGaussianBlur stdDeviation="5"/>
<feColorMatrix type="matrix" values="0 0 0 0 0.15375 0 0 0 0 0.522433 0 0 0 0 0.9 0 0 0 0.5 0"/>
<feBlend mode="normal" in2="effect1_backgroundBlur_18441_13" result="effect2_dropShadow_18441_13"/>
<feBlend mode="normal" in="SourceGraphic" in2="effect2_dropShadow_18441_13" result="shape"/>
</filter>
<linearGradient id="paint0_linear_18441_13" x1="49.5091" y1="19.2189" x2="6.4554" y2="32.2619" gradientUnits="userSpaceOnUse">
<stop stop-color="#39AFFD"/>
<stop offset="1" stop-color="#477FFF"/>
</linearGradient>
<linearGradient id="paint1_linear_18441_13" x1="16.3333" y1="29.3688" x2="49.9748" y2="67.4462" gradientUnits="userSpaceOnUse">
<stop stop-color="white" stop-opacity="0.25"/>
<stop offset="1" stop-color="white" stop-opacity="0"/>
</linearGradient>
<linearGradient id="paint2_linear_18441_13" x1="41.6555" y1="40.5852" x2="49.8917" y2="55.3677" gradientUnits="userSpaceOnUse">
<stop stop-color="white" stop-opacity="0.25"/>
<stop offset="1" stop-color="white" stop-opacity="0"/>
</linearGradient>
<linearGradient id="paint3_linear_18441_13" x1="46.4348" y1="43.5065" x2="40.7795" y2="43.6909" gradientUnits="userSpaceOnUse">
<stop stop-color="white"/>
<stop offset="1" stop-color="white" stop-opacity="0.2"/>
</linearGradient>
<linearGradient id="paint4_linear_18441_13" x1="42.2647" y1="44.2928" x2="46.5757" y2="44.3166" gradientUnits="userSpaceOnUse">
<stop stop-color="white"/>
<stop offset="1" stop-color="white" stop-opacity="0"/>
</linearGradient>
<linearGradient id="paint5_linear_18441_13" x1="33.5324" y1="34.089" x2="15.547" y2="36.9079" gradientUnits="userSpaceOnUse">
<stop stop-color="white"/>
<stop offset="1" stop-color="white" stop-opacity="0.2"/>
</linearGradient>
<linearGradient id="paint6_linear_18441_13" x1="19.9588" y1="34.6214" x2="33.9816" y2="34.9936" gradientUnits="userSpaceOnUse">
<stop stop-color="white"/>
<stop offset="1" stop-color="white" stop-opacity="0"/>
</linearGradient>
</defs>
</svg>
